<svg xmlns="http://www.w3.org/2000/svg" xmlns:xlink="http://www.w3.org/1999/xlink" width="500" zoomAndPan="magnify" viewBox="0 0 375 374.999991" height="500" preserveAspectRatio="xMidYMid meet" version="1.0"><defs><clipPath id="297613f03e"><path d="M 28 33.503906 L 347.507812 33.503906 L 347.507812 341.753906 L 28 341.753906 Z M 28 33.503906 " clip-rule="nonzero"/></clipPath></defs><g clip-path="url(#297613f03e)"><path fill="#ffffff" d="M 119.09375 36.195312 C 120.546875 35.222656 121.820312 33.507812 123.785156 34 C 122.785156 36.199219 120.511719 37.417969 119.375 39.519531 C 113.613281 54.621094 102.941406 55.082031 102.386719 62.140625 C 106.773438 59.589844 110.828125 56.464844 115.347656 54.097656 C 116.804688 53.417969 118.003906 52.324219 118.910156 51.003906 C 129.121094 37.152344 145.894531 34.296875 162.617188 38.371094 C 163.535156 38.476562 163.8125 39.296875 164.027344 40.070312 C 161.433594 40.433594 158.796875 40.304688 156.214844 40.6875 C 145.847656 43.746094 143.058594 57.449219 126.28125 54.75 C 123.929688 54.820312 121.628906 54.140625 119.289062 54.175781 C 114.246094 56.667969 104.0625 63.0625 101.691406 65.542969 C 103.375 66.449219 105.324219 66.175781 107.160156 66.082031 C 110.027344 65.734375 112.320312 63.871094 114.824219 62.605469 C 123.097656 58.292969 123.644531 59.421875 134.730469 60.796875 C 138.710938 61.601562 142.78125 60.917969 146.796875 61.121094 C 146.71875 61.367188 146.570312 61.871094 146.492188 62.121094 C 144.230469 62.917969 141.824219 63.023438 139.484375 63.410156 C 134.792969 65.15625 130.785156 68.539062 125.878906 69.734375 C 116.296875 69.945312 106.765625 68.460938 97.195312 68.804688 C 90.699219 74.101562 84.460938 79.765625 79.101562 86.238281 C 83.03125 88.75 89.949219 81.089844 93.136719 79.074219 C 95.882812 77.046875 99.304688 76.21875 102.667969 76.152344 C 119.734375 74.652344 110.578125 75.859375 121.148438 73.566406 C 121.140625 73.898438 121.125 74.558594 121.121094 74.890625 C 119.039062 75.898438 116.746094 76.371094 114.664062 77.347656 C 110.808594 79.453125 105.269531 85.8125 101.503906 86.292969 C 73.441406 90.621094 76.769531 89.238281 75.050781 91.117188 C 69.613281 97.800781 62.765625 108.453125 62.011719 111.082031 C 67.632812 110.988281 71.328125 101.230469 76.777344 98.4375 C 83.605469 94.621094 86.664062 96.6875 99.875 90.183594 C 99.914062 90.507812 99.988281 91.148438 100.023438 91.472656 C 97.972656 93.367188 95.058594 94.050781 93.160156 96.144531 C 88.734375 101.003906 86.625 105.085938 82.652344 106.664062 C 58.035156 115.589844 59.902344 114.277344 58.683594 117.019531 C 55.511719 124.042969 52.402344 131.175781 50.632812 138.695312 C 54.90625 138.851562 57.210938 128.75 62.015625 123.832031 C 67.015625 119.503906 73.695312 118.007812 79.03125 114.207031 C 80.640625 113.089844 82.15625 111.851562 83.777344 110.746094 C 83.816406 111.402344 84.128906 112.183594 83.523438 112.695312 C 81.964844 114.488281 79.746094 115.625 78.410156 117.632812 C 75.746094 121.65625 74.3125 126.585938 70.683594 129.917969 C 63.917969 134.285156 50.691406 142.148438 49.085938 144.089844 C 47.460938 150.738281 46.558594 157.53125 45.714844 164.316406 C 49.019531 163.90625 49.464844 154.347656 53.714844 148.65625 C 57.804688 144.054688 63.65625 141.605469 68.152344 137.46875 C 69.292969 136.417969 69.367188 134.566406 70.820312 133.785156 C 70.992188 136.097656 69.136719 137.8125 68.710938 139.980469 C 65.675781 154.320312 62.613281 153.25 49.664062 165.738281 C 48.332031 167.066406 46.699219 168.105469 45.613281 169.664062 C 45.25 174.035156 45.421875 187.460938 46.574219 192.589844 L 47.390625 192.589844 C 48.363281 190.925781 49.210938 189.078125 49.167969 187.113281 C 49.234375 173.246094 51.882812 174.785156 62.011719 163.511719 C 63.535156 162.179688 64.011719 160.167969 64.46875 158.292969 C 64.683594 158.222656 65.105469 158.085938 65.324219 158.015625 C 65.597656 160.261719 64.210938 162.214844 64.21875 164.425781 C 63.484375 178.953125 61.738281 173.363281 47.226562 196.703125 C 48.101562 204.183594 50.179688 211.523438 52.496094 218.691406 C 52.648438 219.613281 54.144531 219.097656 54.105469 218.308594 C 54.910156 214.460938 53.992188 210.5625 53.632812 206.722656 C 53.507812 205.378906 52.84375 204.011719 53.378906 202.675781 C 55.125 196.324219 59.976562 191.523438 62.625 185.609375 C 63.296875 184.316406 62.40625 182.261719 63.789062 181.464844 C 65.800781 207.117188 66.085938 191.210938 55.097656 221.550781 C 54.859375 222.386719 54.363281 223.261719 54.605469 224.144531 C 57.15625 231.273438 60.769531 237.957031 64.433594 244.554688 C 64.632812 244.613281 65.03125 244.738281 65.226562 244.804688 C 65.433594 242.582031 65.664062 240.214844 64.710938 238.128906 C 59.148438 225.230469 62.570312 225.472656 67.296875 209.949219 C 67.800781 208.058594 67.054688 206.113281 67.507812 204.21875 C 68.222656 205.28125 68.796875 206.472656 68.816406 207.777344 C 69.113281 212.1875 74.359375 221.863281 71.859375 227.714844 C 69.449219 234.273438 68.28125 241.1875 66.710938 247.964844 C 72.175781 256.757812 80.652344 267 82.886719 268.511719 C 83.449219 262.894531 76.203125 256.421875 76.007812 250.453125 C 76.144531 244.867188 77.679688 239.40625 78.011719 233.835938 C 78.25 232.0625 77.3125 230.472656 77.121094 228.753906 C 79.449219 229.835938 79.179688 232.976562 80.429688 234.921875 C 88.558594 247.042969 86.484375 256.765625 85.300781 269.410156 C 85.308594 270.109375 84.886719 271.011719 85.566406 271.539062 C 87.621094 273.585938 101.25 286.597656 103.980469 286.527344 C 104.046875 281.742188 97.269531 275.980469 94.351562 271.867188 C 91.433594 266.382812 92.8125 259.988281 91.941406 254.097656 C 91.820312 252.183594 90.199219 250.785156 90.117188 248.867188 C 92.335938 250.472656 92.976562 253.328125 94.9375 255.171875 C 98.652344 258.855469 101.230469 263.507812 103.300781 268.273438 C 104.597656 272.425781 104.753906 276.804688 105.429688 281.078125 C 106.019531 290.375 106.515625 288.722656 109.148438 290.757812 C 114.679688 294.203125 120.316406 297.5625 126.296875 300.164062 C 126.132812 299.511719 126.257812 298.722656 125.78125 298.199219 C 122.964844 294.875 118.792969 293.175781 115.613281 290.285156 C 111.777344 285.027344 109.863281 272.84375 108.28125 269.03125 C 107.5625 267.742188 106.445312 266.734375 105.726562 265.445312 C 107.582031 265.601562 108.515625 267.355469 109.679688 268.570312 C 111.035156 270.203125 117.957031 274.324219 121.835938 281.476562 C 125.394531 289.425781 128.046875 301.25 131.105469 302.457031 C 138.367188 305.542969 145.875 308.085938 153.539062 309.976562 C 153.617188 309.667969 153.765625 309.054688 153.847656 308.753906 C 151.914062 305.679688 145.859375 303.804688 140.304688 300.667969 C 134.210938 297.25 134.613281 291.277344 130.191406 284.777344 C 128.957031 282.761719 126.183594 282.113281 125.421875 279.738281 C 128.160156 280.117188 130.132812 282.238281 132.480469 283.5 C 135.113281 285.125 138.113281 286.078125 140.636719 287.882812 C 148.585938 294.367188 151.847656 304.910156 159.890625 311.285156 C 163.144531 312.113281 176.191406 314.136719 178.535156 313.71875 C 178.488281 309.835938 170.070312 309.925781 163.933594 306.261719 C 158.625 302.726562 157.570312 295.230469 151.761719 292.269531 C 150.875 291.773438 150.09375 291.109375 149.5625 290.238281 C 152.09375 290.445312 154.367188 291.746094 156.796875 292.414062 C 160.238281 293.707031 164.128906 293.863281 167.25 295.953125 C 174.152344 300.582031 177.324219 308.898438 183.96875 313.824219 C 185.085938 314.355469 186.414062 314.058594 187.621094 314.160156 C 189.074219 314.035156 190.761719 314.476562 192 313.492188 C 194.207031 312.058594 195.535156 309.71875 197.367188 307.894531 C 209.941406 291.660156 209.394531 295.773438 218.574219 292.445312 C 220.980469 291.644531 223.320312 290.5 225.871094 290.238281 C 224.910156 292.125 222.582031 292.535156 221.167969 293.976562 C 217.601562 297.566406 216.085938 302.796875 211.988281 305.929688 C 208.023438 308.691406 203 309.070312 198.742188 311.207031 C 197.761719 311.585938 197.25 312.527344 196.691406 313.351562 C 197.839844 314.269531 199.285156 313.585938 200.597656 313.582031 C 217.234375 311.570312 215.316406 311.601562 217.558594 309.5 C 223.648438 303.511719 227.074219 295.398438 233.101562 289.355469 C 235.804688 286.605469 239.609375 285.550781 242.820312 283.578125 C 245.144531 282.238281 247.207031 280.421875 249.800781 279.601562 C 249.785156 279.921875 249.757812 280.566406 249.742188 280.886719 C 247.78125 282.4375 245.609375 283.914062 244.414062 286.179688 C 242.273438 289.585938 241.367188 293.613281 239.15625 296.980469 C 235.449219 302.941406 222.578125 304.550781 221.402344 309.574219 C 225.738281 309.957031 241.007812 303.925781 245.257812 302.050781 C 251.613281 293.109375 249.335938 280.066406 264.40625 269.945312 C 266.386719 268.675781 267.113281 265.734375 269.667969 265.417969 C 268.96875 267.070312 267.273438 268.128906 266.832031 269.90625 C 263.472656 282.550781 262.515625 286.339844 260.003906 290.144531 C 256.917969 292.972656 252.886719 294.640625 250.046875 297.773438 C 249.5 298.378906 249.355469 299.210938 249.144531 299.972656 C 255.222656 297.847656 267.84375 290.160156 269.070312 288.539062 C 269.792969 286.152344 270.230469 277.121094 271.496094 270.839844 C 272.339844 266.746094 274.617188 263.148438 276.835938 259.664062 C 278.449219 256.992188 281.132812 255.140625 282.601562 252.363281 C 283.25 251.085938 284.050781 249.871094 285.140625 248.929688 C 285.226562 249.175781 285.394531 249.664062 285.480469 249.910156 C 281.542969 255.011719 284.691406 257.476562 282.394531 268.394531 C 282.042969 270.378906 281.164062 272.265625 279.761719 273.730469 C 271.433594 282.835938 271.824219 283.671875 271.621094 286.601562 C 274.996094 285.542969 286.003906 275.582031 290.410156 271.054688 C 289.734375 268.046875 289.949219 264.945312 289.433594 261.914062 C 288.796875 252.871094 287.992188 250.105469 292.402344 239.570312 C 293.402344 236.988281 295.445312 234.933594 296.164062 232.230469 C 296.722656 230.96875 296.742188 228.988281 298.4375 228.726562 C 295.316406 235.847656 301.300781 247.234375 298.839844 253.707031 C 296.828125 258.578125 292.828125 262.765625 292.476562 268.214844 C 295.15625 267.316406 305.003906 253.941406 308.511719 248.382812 C 308.660156 245.128906 305.4375 233.933594 305.152344 232.519531 C 303.695312 225.707031 301.757812 228.042969 303.835938 217.773438 C 304.777344 213.105469 305.789062 214.519531 307.105469 205.050781 C 307.363281 204.960938 307.863281 204.785156 308.117188 204.699219 C 308.121094 206.359375 307.652344 208.039062 308.050781 209.679688 C 309.75 215.152344 312.34375 220.359375 313.449219 226.007812 C 314.261719 230.921875 311.695312 235.425781 310.105469 239.890625 C 310.003906 241.558594 309.617188 243.507812 310.675781 244.945312 C 314.65625 238.5 317.972656 231.664062 320.761719 224.621094 C 321.378906 223.519531 320.613281 222.359375 320.3125 221.292969 C 317.878906 214.976562 315.585938 208.574219 312.417969 202.585938 C 308.480469 196.429688 312.039062 190.828125 311.492188 181.84375 C 311.75 181.808594 312.257812 181.730469 312.507812 181.6875 C 312.539062 182.804688 312.492188 183.929688 312.660156 185.035156 C 315.210938 191.605469 320.992188 196.664062 322.238281 203.769531 C 321.847656 207.34375 319.363281 220.558594 322.851562 219.0625 C 323.722656 216.421875 329.445312 198.082031 327.75 195.882812 C 313.746094 174.0625 313.199219 178.300781 311.761719 170.1875 C 311.230469 167.902344 311.65625 165.515625 311.085938 163.230469 C 310.761719 161.421875 309.734375 159.484375 310.695312 157.703125 C 311.402344 159.546875 311.640625 161.679688 313.066406 163.160156 C 315.9375 166.316406 319.167969 169.132812 322.027344 172.296875 C 329.5 181.460938 324.105469 186.019531 327.832031 192.109375 C 328.050781 192.660156 328.433594 192.804688 328.980469 192.539062 C 329.722656 189.046875 330.457031 176.175781 329.871094 169.613281 C 313.894531 153.214844 310.429688 156.476562 306.847656 140.320312 C 306.316406 138.050781 304.6875 136.144531 304.617188 133.75 C 306.152344 134.734375 306.292969 136.773438 307.730469 137.855469 C 312.363281 141.960938 318.429688 144.40625 322.269531 149.417969 C 326.078125 155.269531 326.363281 163.4375 329.492188 163.835938 C 329.507812 157.625 326.476562 144.425781 326.429688 143.945312 C 319.371094 138.734375 311.679688 134.476562 304.398438 129.613281 C 300.960938 126.089844 299.546875 121.160156 296.714844 117.203125 C 295 115.273438 292.789062 113.824219 291.242188 111.738281 C 291.523438 111.449219 291.808594 111.167969 292.09375 110.882812 C 303.597656 120.414062 311.71875 119.296875 316.128906 127.40625 C 317.828125 129.796875 321.589844 139.351562 324.851562 138.660156 C 322.761719 130.542969 319.621094 122.671875 315.761719 115.242188 C 309.015625 112.121094 301.832031 110.027344 294.875 107.414062 C 293.160156 106.726562 291.1875 106.371094 289.890625 104.953125 C 287.050781 102.0625 284.703125 98.742188 281.925781 95.800781 C 280.214844 94.019531 277.722656 93.371094 275.808594 91.871094 C 275.230469 91.515625 275.371094 90.742188 275.226562 90.183594 C 278.175781 91.03125 280.652344 93.054688 283.667969 93.726562 C 288.613281 95.335938 293.960938 95.8125 298.578125 98.34375 C 304.824219 101.753906 307.433594 110.746094 313.445312 111.035156 C 310.085938 103.917969 305.34375 97.519531 300.605469 91.265625 C 299.347656 89.023438 289.945312 88.910156 273.761719 86.265625 C 270.707031 85.753906 265.511719 80.777344 262.289062 78.25 C 260.214844 76.621094 257.5 76.375 255.179688 75.257812 C 254.480469 75.007812 254.246094 74.25 253.96875 73.644531 C 257.003906 73.804688 259.800781 75.289062 262.851562 75.347656 C 267.164062 75.921875 271.535156 75.90625 275.855469 76.417969 C 284.914062 77.652344 287.324219 86.820312 296.023438 86.808594 C 296.035156 85.570312 295.105469 84.730469 294.367188 83.871094 C 289.199219 78.570312 284.054688 73.164062 278.089844 68.753906 C 268.132812 68.597656 250.992188 70.480469 248.488281 69.480469 C 244.929688 68.207031 241.714844 66.1875 238.371094 64.464844 C 235.589844 62.65625 232.097656 63.289062 229.050781 62.222656 C 229.019531 61.914062 228.957031 61.292969 228.921875 60.980469 C 245.574219 61.636719 246.960938 58.792969 253.769531 59.773438 C 262.179688 61.738281 266.019531 68.371094 273.621094 65.585938 C 270.785156 62.457031 260.152344 56.238281 256.445312 54.21875 C 254.039062 53.800781 244.582031 56.652344 236.921875 53.332031 C 230.960938 50.527344 227.351562 44.511719 221.519531 41.542969 C 218.335938 39.820312 214.601562 40.925781 211.242188 39.910156 C 212.925781 37.371094 216.417969 37.953125 219.003906 37.199219 C 251.3125 34.808594 254.035156 50.84375 259.304688 53.632812 C 263.207031 55.886719 267.089844 58.191406 270.773438 60.796875 C 271.5 61.328125 272.289062 61.761719 273.144531 62.070312 C 272.171875 55.273438 261.9375 53.859375 256.789062 41.140625 C 254.996094 36.550781 252.101562 36.382812 251.925781 33.875 C 253.839844 33.734375 255.078125 35.335938 256.523438 36.300781 C 258.980469 38.296875 262.21875 38.851562 264.800781 40.640625 C 272.628906 45.394531 274.371094 58.523438 276.476562 64.652344 C 278.097656 66.699219 280.605469 67.816406 282.402344 69.710938 C 285.6875 72.4375 288.699219 75.46875 291.796875 78.402344 C 293.140625 79.804688 294.339844 81.375 295.945312 82.5 C 296.171875 74.316406 284.71875 69.277344 283.394531 59.898438 C 282.976562 56.519531 282.414062 52.679688 279.503906 50.472656 C 277.878906 48.785156 275.164062 47.929688 274.480469 45.507812 C 276.792969 44.953125 278.183594 46.980469 279.621094 48.371094 C 283.007812 51.894531 287.386719 54.265625 290.808594 57.753906 C 299.554688 67.113281 297.566406 79.550781 298.613281 85.691406 C 302.796875 90.910156 306.960938 96.171875 310.496094 101.871094 C 311.277344 103.007812 311.785156 104.449219 313.117188 105.078125 C 313.496094 98.289062 305.96875 93.136719 305.96875 82.605469 C 305.980469 79.328125 305.980469 75.984375 304.863281 72.863281 C 303.578125 69.367188 299.007812 66.554688 298.753906 64.207031 C 299.320312 64.175781 299.894531 64.144531 300.464844 64.128906 C 301.878906 65.601562 303.140625 67.210938 304.296875 68.890625 C 308.074219 73.695312 313.648438 77.441406 315.382812 83.589844 C 316.992188 90.894531 314.8125 98.320312 315.097656 105.683594 C 314.589844 111.222656 318.125 112.671875 324.964844 131.867188 C 325.226562 131.933594 325.746094 132.058594 326.007812 132.125 C 326.414062 124.621094 320.941406 118.753906 323.554688 108.78125 C 324.039062 105.789062 324.820312 102.765625 324.386719 99.71875 C 323.378906 95.589844 320.238281 92.4375 318.910156 88.4375 C 319.507812 88.433594 320.382812 87.945312 320.828125 88.578125 C 323.5625 91.886719 325.183594 95.910156 327.449219 99.519531 C 329.785156 103.769531 332.34375 108.234375 332.394531 113.222656 C 332.085938 121.226562 329.15625 128.765625 327.332031 136.484375 C 326.433594 140.195312 329.457031 143.933594 330.824219 157.957031 C 331.121094 158.035156 331.714844 158.179688 332.015625 158.253906 C 332.503906 153.097656 330.746094 147.921875 331.875 142.785156 C 332.808594 137.996094 336.082031 134.066406 337.078125 129.292969 C 337.746094 124.753906 334.789062 120.789062 334.414062 116.375 C 334.761719 116.378906 335.464844 116.382812 335.808594 116.386719 C 337.0625 118.164062 343.101562 134.117188 341.519531 143.160156 C 338.894531 152.019531 332.644531 160.421875 331.648438 164.46875 C 332.542969 172.917969 332.089844 181.441406 331.378906 189.890625 C 335.378906 189.515625 332.597656 176.730469 339.027344 168.101562 C 347.738281 155.90625 343.203125 155.503906 344.070312 146.449219 C 344.398438 146.480469 345.050781 146.539062 345.375 146.570312 C 346.613281 150.347656 346.488281 154.390625 346.789062 158.3125 C 347.445312 161.679688 347.257812 165.125 347.277344 168.535156 C 347.527344 174.675781 341.515625 181.476562 336.972656 187.207031 C 331.640625 194.085938 330.679688 192.585938 330.082031 198.648438 C 329.207031 204.332031 327.523438 209.84375 326.273438 215.445312 C 328.871094 214.945312 329.433594 206.625 333.175781 201.453125 C 335.65625 197.097656 342.363281 194.863281 344.101562 188.722656 C 344.796875 186.171875 344.996094 183.496094 345.855469 180.984375 C 346.253906 180.242188 347.453125 180.898438 347.257812 181.671875 C 346.8125 186.15625 345.410156 190.503906 345.046875 195.003906 C 342.464844 205.382812 343.058594 204.425781 336.78125 210.054688 C 333.34375 213.21875 329.558594 215.960938 325.855469 218.796875 C 324.3125 219.847656 323.957031 221.796875 323.3125 223.425781 C 321.460938 228.847656 318.636719 233.867188 316.457031 239.136719 C 320.882812 238.871094 321.515625 225.574219 331.203125 222.769531 C 342.441406 219.117188 339.453125 212.992188 342.980469 211.15625 C 343.246094 212.292969 343.105469 213.464844 342.65625 214.539062 C 333.414062 237.335938 331.054688 233.261719 314.597656 242.234375 C 313.9375 243.074219 308.222656 253.78125 299.550781 263.820312 C 299.414062 264.160156 299.148438 264.828125 299.019531 265.160156 C 305.644531 263.136719 306.308594 254.871094 314.523438 251.292969 C 317.699219 250.050781 321.234375 249.671875 324.121094 247.746094 C 329.328125 244.238281 327.191406 245.054688 331.949219 238.46875 C 332.277344 238.476562 332.925781 238.5 333.253906 238.507812 C 333.484375 241.695312 331.027344 244.09375 329.632812 246.730469 C 320.054688 261.765625 321.679688 258.949219 298.476562 267.722656 C 297.0625 268.285156 295.460938 268.574219 294.375 269.730469 C 281.46875 283.382812 278.222656 283.160156 277.746094 285.824219 C 285.289062 284.277344 288.691406 275.789062 296.144531 274.097656 C 300.023438 273.132812 304.261719 274.683594 307.988281 272.871094 C 310.023438 271.632812 311.570312 269.753906 313.472656 268.328125 C 314.441406 267.714844 314.910156 269.320312 314.355469 269.941406 C 312.585938 272.816406 302.492188 282.609375 297.125 284.960938 C 291.558594 287.589844 274.949219 287.011719 272.933594 288.492188 C 267.519531 292.402344 261.847656 295.976562 255.878906 298.984375 C 254.945312 299.472656 253.9375 299.910156 253.382812 300.863281 C 254.855469 300.914062 256.382812 301.039062 257.820312 300.613281 C 262.59375 299.390625 265.613281 294.59375 270.601562 293.898438 C 274.671875 293.621094 278.800781 294.382812 282.828125 293.515625 C 289.304688 292.273438 286.027344 293.542969 293.605469 288.757812 C 293.851562 288.914062 294.339844 289.226562 294.585938 289.386719 C 293.722656 292.03125 291.074219 293.40625 288.953125 294.933594 C 283.40625 298.777344 277.625 303.351562 270.574219 303.597656 C 249.050781 302.394531 249.511719 301.976562 247.441406 303.15625 C 242.503906 305.417969 237.40625 307.328125 232.242188 308.996094 C 230.671875 309.511719 229.054688 309.90625 227.582031 310.652344 C 231.953125 313.738281 238.6875 309.078125 242.894531 307.703125 C 245.476562 306.90625 247.996094 308.25 250.46875 308.839844 C 253.984375 309.84375 257.691406 309.539062 261.304688 309.46875 C 264.628906 309.578125 267.226562 307.171875 270.339844 306.40625 C 270.515625 306.609375 270.863281 307.011719 271.03125 307.214844 C 269.058594 309.449219 266.179688 310.554688 263.46875 311.625 C 257.027344 314.121094 250.46875 317.035156 243.417969 316.949219 C 229.894531 315.28125 226.292969 312.441406 223.339844 311.605469 C 204.695312 316.425781 202.269531 314.035156 200.222656 316.261719 C 202.253906 316.902344 204.386719 317.816406 206.546875 317.210938 C 209.84375 316.746094 213.269531 315.363281 216.5625 316.550781 C 218.351562 317.132812 219.804688 318.394531 221.523438 319.132812 C 225.191406 320.902344 232.203125 322.136719 240.683594 320.445312 C 240.835938 320.679688 241.140625 321.152344 241.292969 321.386719 C 238.984375 323.332031 235.789062 323.328125 232.960938 323.796875 C 213.550781 327.316406 213.109375 325.519531 206.453125 322.472656 C 202.816406 320.699219 199.316406 318.621094 196.136719 316.113281 C 194.808594 315.90625 193.464844 316.050781 192.136719 316.117188 C 193.234375 317.648438 195.117188 318.292969 196.550781 319.464844 C 211.628906 330.832031 211.261719 338.089844 225.03125 338.179688 C 218.660156 340.382812 211.824219 341.5 205.082031 341.128906 C 201.351562 323.59375 190.894531 316.105469 187.1875 316.558594 C 178.082031 319.300781 172.539062 331.574219 170.308594 341.214844 C 163.53125 341.371094 156.675781 340.449219 150.300781 338.132812 C 164.636719 337.90625 164.476562 330.0625 179.683594 318.90625 C 180.8125 318 182.410156 317.539062 182.992188 316.105469 C 181.507812 316.171875 179.753906 315.515625 178.542969 316.664062 C 174.847656 319.515625 170.714844 321.761719 166.472656 323.683594 C 160.050781 327.179688 152.460938 325.503906 145.632812 324.398438 C 142.046875 323.332031 138.070312 323.777344 134.71875 321.925781 C 134.574219 321.4375 134.457031 320.945312 134.375 320.449219 C 137.226562 320.679688 140.019531 321.640625 142.898438 321.375 C 145.949219 320.957031 149.089844 320.992188 152.027344 319.941406 C 155.347656 319 157.9375 316.132812 161.515625 316.007812 C 164.402344 316.148438 167.191406 317.046875 170.050781 317.394531 C 171.726562 317.609375 173.296875 316.917969 174.863281 316.445312 C 174.886719 316.226562 174.9375 315.789062 174.960938 315.574219 C 167.242188 314.703125 159.535156 313.519531 151.996094 311.570312 C 145.996094 314.472656 139.417969 315.953125 132.847656 316.890625 C 125.191406 317.269531 118.085938 313.90625 111.0625 311.324219 C 108.976562 310.375 106.726562 309.535156 105.117188 307.832031 C 104.5 307.3125 104.722656 306.007812 105.722656 306.613281 C 110.789062 308.402344 110.179688 310.21875 122.742188 309.371094 C 126.175781 309.035156 129.46875 306.660156 132.964844 307.855469 C 138.449219 309.441406 139.988281 312.621094 146.941406 311.3125 C 147.097656 311.054688 147.40625 310.542969 147.5625 310.289062 C 140.824219 308.445312 134.230469 306.027344 127.886719 303.082031 C 126.054688 302.035156 123.90625 302.492188 121.90625 302.574219 C 117.34375 303.132812 112.722656 302.808594 108.167969 303.429688 C 105.289062 303.789062 102.34375 303.539062 99.574219 302.667969 C 93.972656 300.722656 83.160156 292.90625 81.386719 290.824219 C 81.085938 290.199219 81.015625 288.738281 82.035156 288.859375 C 85.195312 290.800781 87.53125 294.8125 102.695312 293.839844 C 110.457031 293.117188 113.71875 302.347656 122.078125 300.804688 C 121.597656 300.246094 121.027344 299.792969 120.375 299.484375 C 114.160156 296.171875 108.097656 292.546875 102.378906 288.441406 C 98.59375 287.28125 94.507812 287.632812 90.621094 286.964844 C 80.679688 286.347656 77.421875 286.070312 69.230469 278.359375 C 66.300781 275.519531 62.925781 273.042969 60.796875 269.492188 C 60.929688 269.117188 61.183594 268.378906 61.316406 268.007812 C 63.757812 269.253906 65.277344 271.71875 67.6875 273.007812 C 71.859375 274.761719 76.566406 272.835938 80.765625 274.527344 C 87.367188 276.847656 90.667969 284.691406 97.90625 285.667969 C 97.527344 284.964844 97.050781 284.324219 96.414062 283.847656 C 91.03125 279.550781 85.957031 274.878906 81.265625 269.835938 C 79.335938 267.476562 59.4375 262.910156 54.292969 258.09375 C 49.75 253.75 46.667969 248.199219 43.496094 242.847656 C 42.664062 241.328125 41.335938 239.378906 42.9375 237.90625 C 46.597656 241.742188 45.886719 244.734375 52.152344 248.25 C 55.480469 250.121094 59.484375 250.257812 62.765625 252.234375 C 68.609375 255.460938 71.078125 264.339844 76.917969 265.257812 C 75.722656 263.304688 74.058594 261.703125 72.652344 259.902344 C 53.015625 233.882812 70.304688 248.144531 45.570312 234.644531 C 40.941406 232.046875 37.929688 225.699219 34.707031 219 C 33.65625 216.476562 31.917969 213.996094 32.605469 211.121094 C 35.097656 213.164062 35.046875 216.984375 37.566406 219.066406 C 40.410156 222.277344 45.109375 222.285156 48.375 224.871094 C 53.9375 229.039062 54.84375 237.953125 59.109375 239.5625 C 58.957031 238.832031 58.769531 238.105469 58.394531 237.453125 C 50.675781 222.074219 51.777344 220.191406 50.023438 219.136719 C 32.390625 205.941406 32.355469 204.570312 30.636719 196 C 29.390625 186.65625 27.855469 183.664062 28.410156 180.710938 C 28.714844 180.707031 29.328125 180.695312 29.636719 180.6875 C 30.714844 184.554688 30.601562 188.9375 33.203125 192.21875 C 35.835938 195.964844 40.257812 197.972656 42.671875 201.894531 C 46.765625 208.488281 46.351562 214.71875 49.183594 215.050781 C 47.578125 208.816406 45.777344 202.601562 45.027344 196.1875 C 44.746094 192.695312 37.148438 187.441406 29.976562 175.449219 C 27.265625 170.253906 28.136719 164.191406 28.636719 158.59375 C 29.355469 154.609375 28.449219 150.296875 30.222656 146.53125 C 30.558594 146.523438 31.230469 146.511719 31.558594 146.507812 C 31.828125 150.167969 30.8125 153.773438 31.09375 157.429688 C 32.785156 166.234375 39.265625 167.804688 40.722656 179.539062 C 41.390625 183.574219 41.539062 189.394531 44.0625 189.410156 C 43.6875 182.621094 42.835938 175.800781 43.515625 168.988281 C 43.476562 166.777344 44.339844 164.332031 43.09375 162.316406 C 34.203125 145.441406 31.144531 142.53125 35.601562 127.933594 C 36.691406 124.390625 37.386719 120.6875 39.113281 117.375 C 39.480469 116.632812 40.257812 116.265625 40.914062 115.820312 C 41.199219 119.953125 38.265625 123.621094 38.253906 127.75 C 38.683594 133.265625 42.652344 137.632812 43.648438 142.984375 C 44.554688 153.398438 42.128906 155.53125 43.914062 158.433594 C 45.394531 156.613281 43.953125 156.328125 48.003906 140.273438 C 48.792969 136.453125 47.078125 132.800781 46.125 129.1875 C 41.621094 110.6875 41.488281 111.179688 50.144531 95.824219 C 51.652344 93.335938 52.769531 90.5625 54.789062 88.421875 C 55.324219 88.28125 55.875 88.195312 56.4375 88.167969 C 55.546875 92.738281 51.351562 96 50.972656 100.738281 C 50.734375 105.96875 53.148438 111.003906 52.4375 116.257812 C 52.246094 121.722656 49.003906 126.695312 49.621094 132.246094 C 49.859375 132.210938 50.335938 132.140625 50.578125 132.105469 C 52.648438 125.027344 55.910156 118.351562 59.128906 111.738281 C 61.535156 106.90625 59.53125 95.890625 59.632812 91.613281 C 59.800781 83.652344 58.132812 82.257812 68.984375 71.476562 C 71.175781 69.285156 72.578125 66.414062 74.925781 64.363281 C 75.441406 64.195312 75.976562 64.066406 76.523438 64.003906 C 76.386719 64.773438 76.476562 65.695312 75.804688 66.25 C 69.03125 73.46875 70.1875 72.476562 69.390625 83.09375 C 69.71875 91.960938 62.210938 98.589844 62.304688 104.890625 C 64.40625 104.429688 62.5 103.71875 76.71875 85.902344 C 77.792969 81.609375 76.367188 71.285156 81.257812 62.101562 C 83.664062 57.945312 87.640625 55.058594 91.394531 52.203125 C 93.941406 50.445312 95.894531 47.992188 98.304688 46.066406 C 98.910156 45.5 99.769531 45.46875 100.539062 45.28125 C 100.539062 45.648438 100.542969 46.386719 100.542969 46.761719 C 98.550781 48.644531 96.058594 49.996094 94.34375 52.171875 C 91.65625 55.894531 92.765625 60.925781 90.410156 64.777344 C 86.820312 71.199219 79.804688 75.554688 79.527344 82.304688 C 81.152344 81.378906 82.257812 79.816406 83.5625 78.519531 C 86.183594 75.941406 88.753906 73.308594 91.605469 70.972656 C 93.808594 68.792969 96.527344 67.199219 98.679688 64.96875 C 101.140625 60.738281 101.550781 45.292969 112.117188 39.796875 C 114.394531 38.503906 117.027344 37.867188 119.09375 36.199219 Z M 119.09375 36.195312 " fill-opacity="1" fill-rule="nonzero"/></g><path fill="#ffffff" d="M 184.808594 72.691406 C 186.707031 72.539062 188.613281 72.589844 190.511719 72.710938 C 191.058594 77.882812 190.492188 83.117188 190.816406 88.308594 C 194.226562 84.910156 196.347656 80.367188 199.804688 77.015625 C 199.46875 114.3125 200.320312 114.433594 199.320312 115.917969 C 196.527344 119.792969 193.472656 123.488281 190.839844 127.46875 C 190.636719 129.949219 190.601562 132.507812 190.917969 134.984375 C 201.308594 125.546875 210.09375 128.488281 228.589844 126.304688 C 236.113281 125.117188 244.097656 123.476562 249.996094 118.300781 C 251.960938 116.597656 252.839844 114.105469 253.429688 111.652344 C 255.695312 109.027344 260.164062 108.554688 262.78125 110.921875 C 264.640625 113.226562 264.515625 116.710938 262.808594 119.066406 C 261.546875 120.558594 259.621094 121.183594 258.003906 122.191406 C 258.410156 123.257812 294.242188 203.8125 296.628906 205.792969 C 273.898438 229.082031 237.074219 227.410156 216.671875 205.722656 C 219.085938 204.777344 215.695312 210.886719 253.308594 128.058594 C 254.019531 126.511719 254.769531 124.972656 255.261719 123.339844 C 234.957031 128.246094 199.082031 130.609375 190.988281 149.308594 C 190.625 150.164062 190.5625 263.542969 190.886719 266.484375 C 193.484375 265.082031 196.09375 263.695312 198.761719 262.433594 C 195.675781 270.128906 191.871094 277.523438 188.609375 285.148438 C 188.269531 285.59375 188.242188 286.867188 187.4375 286.351562 C 183.824219 278.355469 180.136719 270.394531 176.554688 262.382812 C 179.386719 263.535156 181.917969 265.339844 184.769531 266.46875 C 184.839844 248.71875 184.851562 157.117188 184.765625 149.929688 C 177.25 130.492188 138.1875 127.808594 120.246094 123.335938 C 120.613281 124.789062 118.425781 119.828125 156.441406 203.605469 C 156.78125 204.691406 157.621094 205.375 158.609375 205.851562 C 137.851562 228.132812 99.917969 228.265625 79.007812 205.796875 C 80.96875 204.054688 116.265625 125.167969 117.414062 122.1875 C 115.847656 121.257812 114.105469 120.523438 112.78125 119.25 C 108.273438 113.171875 114.511719 105.789062 121.8125 111.214844 C 123.050781 113.878906 122.199219 119.03125 135.089844 123.625 C 154.5625 130.320312 170.5 123.542969 182.273438 133.199219 C 183.082031 133.835938 183.886719 134.480469 184.761719 135.027344 C 184.820312 132.621094 184.867188 130.210938 184.796875 127.800781 C 182.117188 123.503906 178.710938 119.679688 175.90625 115.464844 C 175.699219 114.121094 175.816406 77.171875 175.816406 76.980469 C 180.226562 82.136719 182.824219 86.9375 184.75 88.335938 C 184.921875 83.121094 184.765625 77.90625 184.804688 72.6875 M 186.425781 75.925781 C 186.644531 78.421875 185.925781 81.082031 186.902344 83.453125 C 189.246094 82.414062 188.972656 85.582031 188.925781 75.75 C 188.09375 75.808594 187.257812 75.859375 186.425781 75.925781 M 191.460938 91.949219 C 190.242188 93.300781 190.667969 95.261719 190.503906 96.921875 C 190.761719 96.851562 191.265625 96.710938 191.519531 96.640625 C 193.304688 94.515625 194.816406 92.152344 196.5625 89.980469 C 197.9375 88.40625 197.351562 86.183594 197.308594 84.289062 C 195.183594 86.699219 193.460938 89.433594 191.460938 91.949219 M 177.902344 84.660156 C 177.902344 85.976562 177.839844 87.292969 177.925781 88.609375 C 179.199219 90.804688 180.933594 92.691406 182.390625 94.761719 C 183.078125 95.667969 183.566406 96.9375 184.875 97.042969 C 184.816406 95.609375 185.066406 94.117188 184.65625 92.730469 C 183.460938 90.898438 181.988281 89.277344 180.78125 87.457031 C 179.980469 86.378906 179.367188 84.925781 177.902344 84.660156 M 194.8125 96.347656 C 193.449219 98.339844 191.800781 100.128906 190.546875 102.1875 C 190.40625 103.359375 190.449219 104.542969 190.449219 105.726562 C 190.710938 105.609375 191.230469 105.382812 191.492188 105.273438 C 199.027344 94.957031 197.308594 98.546875 197.433594 93.449219 C 196.179688 94.011719 195.597656 95.300781 194.8125 96.347656 M 177.886719 93.5625 C 177.910156 94.71875 177.746094 95.914062 178.027344 97.058594 C 179.050781 98.855469 180.480469 100.378906 181.65625 102.070312 C 182.589844 103.363281 183.375 104.851562 184.8125 105.664062 C 184.855469 104.5 184.921875 103.324219 184.78125 102.164062 C 183.132812 99.261719 180.90625 96.761719 178.910156 94.105469 C 178.65625 93.972656 178.144531 93.699219 177.886719 93.5625 M 177.929688 101.910156 C 177.871094 103.164062 177.820312 104.425781 177.941406 105.675781 C 179.078125 107.410156 180.480469 108.957031 181.59375 110.707031 C 182.460938 111.855469 183.199219 113.390625 184.78125 113.621094 C 184.757812 112.503906 184.96875 111.363281 184.730469 110.261719 C 179.511719 102.84375 179.09375 102.449219 177.929688 101.910156 M 193.9375 106.015625 C 192.925781 107.5 191.75 108.867188 190.757812 110.359375 C 190.65625 111.550781 190.710938 112.746094 190.742188 113.941406 C 191.304688 113.640625 191.90625 113.347656 192.234375 112.765625 C 193.902344 110.355469 195.84375 108.136719 197.460938 105.695312 C 197.582031 104.375 197.492188 103.042969 197.378906 101.726562 C 195.863281 102.832031 195.023438 104.539062 193.9375 106.015625 M 193.972656 114.574219 C 192.835938 116.152344 191.496094 117.589844 190.5625 119.304688 C 190.371094 120.371094 190.675781 121.445312 190.773438 122.503906 C 193.183594 120.882812 194.371094 117.984375 196.320312 115.867188 C 197.832031 114.46875 197.476562 112.355469 197.390625 110.515625 C 195.878906 111.515625 195.074219 113.191406 193.972656 114.574219 M 177.867188 110.800781 C 177.890625 111.917969 177.78125 113.046875 177.980469 114.160156 C 179.003906 115.832031 180.308594 117.304688 181.382812 118.941406 C 182.429688 120.285156 183.25 121.917969 184.816406 122.738281 C 184.558594 117.515625 186.484375 121.488281 179.777344 112.085938 C 179.34375 111.390625 178.648438 110.972656 177.867188 110.800781 M 83.84375 200.449219 C 83.152344 202.066406 82.207031 203.609375 81.9375 205.378906 C 106.390625 205.464844 130.84375 205.433594 155.296875 205.394531 C 154.085938 201.910156 119.566406 125.855469 118.390625 124.550781 C 106.777344 149.804688 95.367188 175.152344 83.84375 200.449219 M 256.570312 124.828125 C 218.503906 208.699219 220.542969 203.761719 220.300781 205.40625 C 244.753906 205.445312 269.207031 205.441406 293.664062 205.398438 C 293.09375 203.375 272.457031 158.417969 257.804688 126.023438 C 257.554688 125.445312 257.34375 124.734375 256.570312 124.828125 Z M 256.570312 124.828125 " fill-opacity="1" fill-rule="nonzero"/></svg>